<?xml version="1.0" encoding="UTF-8"?>
				<svg id="stats-circle" data-name="stats circle" xmlns="http://www.w3.org/2000/svg" viewBox="0 0 660 660" width="660px" height="660px" style="position: fixed; top: 140px; left: 250px">
				<defs>
					<style>
					.cls-1 {
						stroke-width: 4px;
					}

					.cls-1, .cls-2 {
						fill: none;
						stroke: #d9d9d9;
					}

					.cls-3 {
						fill: #fff;
					}

					.cls-4 {
						fill: #c14079;
						stroke: #fff;
						transition: all 1s ease-in-out;
					}

					.cls-2 {
						stroke-width: 2px;
					}
					.text-Stat {
						font-size: 32px;
						fill: #fff;
						font-family: 'Gill Sans', 'Gill Sans MT', Calibri, 'Trebuchet MS', sans-serif;
					}
					</style>
				</defs>
				<circle class="cls-1" cx="286" cy="286" r="284"/>
				<circle class="cls-1" cx="286" cy="286" r="266"/>
				<path class="cls-1" d="m286,2v18m0,550v-18"/>
				<path class="cls-1" d="m398.99,24s-2.8,6.48-7.76,18m-218.24,506c.75-1.74,3.39-7.86,7.55-17.5"/>
				<path class="cls-1" d="m486.99,85s-4.67,4.67-13,13M84.99,487c1.31-1.31,5.85-5.85,13-13"/>
				<path class="cls-1" d="m548.99,181s-5.73,2.29-16,6.39M22.99,391c1.63-.65,7.05-2.82,15.6-6.23"/>
				<path class="cls-1" d="m569.99,286h-18m-550,0h18"/>
				<path class="cls-1" d="m22.99,181s5.67,2.26,15.83,6.32m510.17,203.68c-1.65-.66-7.22-2.88-16-6.39"/>
				<path class="cls-1" d="m84.99,85l13,13m389,389c-1.31-1.31-5.85-5.85-13-13"/>
				<path class="cls-1" d="m173.99,24s2.69,6.29,7.48,17.5m216.52,506.5c-.75-1.74-3.36-7.86-7.48-17.5"/>
				<!-- <path class="cls-4" id="diagram" d="M137 201 284 116 431 201 347 322.5 284 391 137 371Z"/> -->
				<path class="cls-4" id="diagram" d="M284 285 284 285 284 285 284 285 284 285 284 285Z"/>
				<circle class="cls-2" cx="284" cy="286" r="200"/>
				<path class="cls-2" d="m284,87v29"/>
				<path class="cls-2" d="m284,485v-29"/>
				<path class="cls-2" d="m456.34,186.5s-9.41,5.43-25.11,14.5"/>
				<path class="cls-2" d="m111.66,385.5c1.82-1.05,10.94-6.32,25.11-14.5"/>
				<path class="cls-2" d="m456.34,385.5s-9.41-5.43-25.11-14.5"/>
				<path class="cls-2" d="m111.66,186.5c1.82,1.05,10.94,6.32,25.11,14.5"/>
				<g>
					<line class="cls-2 v1A" x1="284" y1="116" x2="288" y2="116"/>
					<line class="cls-2 v1A" x1="284" y1="116" x2="280" y2="116"/>
					<path class="cls-2" d="m284,116v32"/>
					<line class="cls-2 v1B" x1="284" y1="148" x2="288" y2="148"/>
					<line class="cls-2 v1B" x1="284" y1="148" x2="280" y2="148"/>
					<path class="cls-2" d="m284,148v32"/>
					<line class="cls-2 v1C" x1="284" y1="180" x2="288" y2="180"/>
					<line class="cls-2 v1C" x1="284" y1="180" x2="280" y2="180"/>
					<path class="cls-2" d="m284,180v33"/>
					<line class="cls-2 v1D" x1="284" y1="213" x2="288" y2="213"/>
					<line class="cls-2 v1D" x1="284" y1="213" x2="280" y2="213"/>
					<path class="cls-2" d="m284,213v32"/>
					<line class="cls-2 v1E" x1="284" y1="245" x2="288" y2="245"/>
					<line class="cls-2 v1E" x1="284" y1="245" x2="280" y2="245"/>
					<path class="cls-2" d="m284,245v82"/>
					<line class="cls-2 v4E" x1="284" y1="327" x2="288" y2="327"/>
					<line class="cls-2 v4E" x1="284" y1="327" x2="280" y2="327"/>
					<path class="cls-2" d="m284,327v32"/>
					<line class="cls-2 v4D" x1="284" y1="359" x2="288" y2="359"/>
					<line class="cls-2 v4D" x1="284" y1="359" x2="280" y2="359"/>
					<path class="cls-2" d="m284,359v32"/>
					<line class="cls-2 v4C" x1="284" y1="391" x2="288" y2="391"/>
					<line class="cls-2 v4C" x1="284" y1="391" x2="280" y2="391"/>
					<path class="cls-2" d="m284,391v33"/>
					<line class="cls-2 v4B" x1="284" y1="424" x2="288" y2="424"/>
					<line class="cls-2 v4B" x1="284" y1="424" x2="280" y2="424"/>
					<path class="cls-2" d="m284,424v32"/>
					<line class="cls-2 v4A" x1="284" y1="456" x2="288" y2="456"/>
					<line class="cls-2 v4A" x1="284" y1="456" x2="280" y2="456"/>
					<line class="cls-2 v2A" x1="431.22" y1="201" x2="433.22" y2="204.46"/>
					<line class="cls-2 v2A" x1="431.22" y1="201" x2="429.22" y2="197.54"/>
					<path class="cls-2" d="m431.22,201c-7.81,4.51-17.17,9.91-27.71,16"/>
					<line class="cls-2 v2B" x1="403.51" y1="217" x2="405.51" y2="220.46"/>
					<line class="cls-2 v2B" x1="403.51" y1="217" x2="401.51" y2="213.54"/>
					<path class="cls-2" d="m403.51,217c-8.54,4.93-17.84,10.3-27.71,16"/>
					<line class="cls-2 v2C" x1="375.8" y1="233" x2="377.8" y2="236.46"/>
					<line class="cls-2 v2C" x1="375.8" y1="233" x2="373.8" y2="229.54"/>
					<path class="cls-2" d="m375.8,233c-9.1,5.25-18.68,10.78-28.58,16.5"/>
					<line class="cls-2 v2D" x1="347.22" y1="249.5" x2="349.22" y2="252.96"/>
					<line class="cls-2 v2D" x1="347.22" y1="249.5" x2="345.22" y2="246.04"/>
					<path class="cls-2" d="m347.22,249.5c-9.01,5.2-18.29,10.56-27.71,16"/>
					<line class="cls-2 v2E" x1="319.51" y1="265.5" x2="321.51" y2="268.96"/>
					<line class="cls-2 v2E" x1="319.51" y1="265.5" x2="317.51" y2="262.04"/>
					<path class="cls-2" d="m319.51,265.5c-11.72,6.77-23.56,13.6-35.51,20.5-11.88,6.86-23.86,13.77-35.51,20.5"/>
					<line class="cls-2 v5E" x1="248.49" y1="306.5" x2="250.49" y2="309.96"/>
					<line class="cls-2 v5E" x1="248.49" y1="306.5" x2="246.49" y2="303.04"/>
					<path class="cls-2" d="m248.49,306.5c-9.42,5.44-18.7,10.8-27.71,16"/>
					<line class="cls-2 v5D" x1="220.78" y1="322.5" x2="222.78" y2="325.96"/>
					<line class="cls-2 v5D" x1="220.78" y1="322.5" x2="218.78" y2="319.04"/>
					<path class="cls-2" d="m220.78,322.5c-9.59,5.54-18.87,10.9-27.71,16"/>
					<line class="cls-2 v5C" x1="193.07" y1="338.5" x2="195.07" y2="341.96"/>
					<line class="cls-2 v5C" x1="193.07" y1="338.5" x2="191.07" y2="335.04"/>
					<path class="cls-2" d="m193.07,338.5c-10.19,5.88-19.79,11.43-28.58,16.5"/>
					<line class="cls-2 v5B" x1="164.49" y1="355" x2="166.49" y2="358.46"/>
					<line class="cls-2 v5B" x1="164.49" y1="355" x2="162.49" y2="351.54"/>
					<path class="cls-2" d="m164.49,355c-10.53,6.08-19.89,11.48-27.71,16"/>
					<line class="cls-2 v5A" x1="136.78" y1="371" x2="138.78" y2="374.46"/>
					<line class="cls-2 v5A" x1="136.78" y1="371" x2="134.78" y2="367.54"/>
					<line class="cls-2 v3A" x1="431.22" y1="371" x2="429.22" y2="374.46"/>
					<line class="cls-2 v3A" x1="431.22" y1="371" x2="433.22" y2="367.54"/>
					<path class="cls-2" d="m431.22,371c-7.81-4.51-17.17-9.92-27.71-16"/>
					<line class="cls-2 v3B" x1="403.51" y1="355" x2="401.51" y2="358.46"/>
					<line class="cls-2 v3B" x1="403.51" y1="355" x2="405.51" y2="351.54"/>
					<path class="cls-2" d="m403.51,355c-8.54-4.93-17.84-10.3-27.71-16"/>
					<line class="cls-2 v3C" x1="375.8" y1="339" x2="373.8" y2="342.46"/>
					<line class="cls-2 v3C" x1="375.8" y1="339" x2="377.8" y2="335.54"/>
					<path class="cls-2" d="m375.8,339c-9.1-5.25-18.68-10.78-28.58-16.5"/>
					<line class="cls-2 v3D" x1="347.22" y1="322.5" x2="345.22" y2="325.96"/>
					<line class="cls-2 v3D" x1="347.22" y1="322.5" x2="349.22" y2="319.04"/>
					<path class="cls-2" d="m347.22,322.5c-9.01-5.2-18.29-10.56-27.71-16"/>
					<path class="cls-2" d="m319.51,306.5c-11.72-6.77-23.56-13.6-35.51-20.5-11.88-6.86-23.86-13.77-35.51-20.5"/>
					<line class="cls-2 v3E" x1="319.51" y1="306.5" x2="317.51" y2="309.96"/>
					<line class="cls-2 v3E" x1="319.51" y1="306.5" x2="321.51" y2="303.04"/>
					<line class="cls-2 v6E" x1="248.49" y1="265.5" x2="246.49" y2="268.96"/>
					<line class="cls-2 v6E" x1="248.49" y1="265.5" x2="250.49" y2="262.04"/>
					<path class="cls-2" d="m248.49,265.5c-9.42-5.44-18.7-10.8-27.71-16"/>
					<line class="cls-2 v6D" x1="220.78" y1="249.5" x2="218.78" y2="252.96"/>
					<line class="cls-2 v6D" x1="220.78" y1="249.5" x2="222.78" y2="246.04"/>
					<path class="cls-2" d="m220.78,249.5c-9.59-5.54-18.87-10.9-27.71-16"/>
					<line class="cls-2 v6C" x1="193.07" y1="233.5" x2="191.07" y2="236.96"/>
					<line class="cls-2 v6C" x1="193.07" y1="233.5" x2="195.07" y2="230.04"/>
					<path class="cls-2" d="m193.07,233.5c-10.19-5.88-19.79-11.43-28.58-16.5"/>
					<line class="cls-2 v6B" x1="164.49" y1="217" x2="162.49" y2="220.46"/>
					<line class="cls-2 v6B" x1="164.49" y1="217" x2="166.49" y2="213.54"/>
					<path class="cls-2" d="m164.49,217c-10.53-6.08-19.89-11.48-27.71-16"/>
					<line class="cls-2 v6A" x1="136.78" y1="201" x2="134.78" y2="204.46"/>
					<line class="cls-2 v6A" x1="136.78" y1="201" x2="138.78" y2="197.54"/>
				</g>
				<path class="cls-3" d="m301.31,110.91l-3.82,11.09h-2.31l4.82-12.8h1.48l-.16,1.71Zm3.2,11.09l-3.83-11.09-.17-1.71h1.48l4.83,12.8h-2.32Zm-.18-4.75v1.75h-6.96v-1.75h6.96Z"/>
				<path class="cls-3" d="m301.41,148.21h-3.26l-.02-1.61h2.85c.48,0,.89-.07,1.22-.21.34-.15.6-.35.77-.62.18-.28.26-.61.26-.99,0-.43-.08-.78-.25-1.05-.16-.27-.42-.47-.76-.59-.33-.12-.76-.18-1.28-.18h-2.14v11.04h-2.21v-12.8h4.34c.7,0,1.33.07,1.88.2.56.13,1.03.34,1.42.63.39.28.69.64.89,1.07.21.43.31.95.31,1.55,0,.53-.13,1.01-.38,1.45-.25.43-.62.79-1.12,1.06-.49.28-1.1.44-1.84.49l-.7.55Zm-.1,5.78h-3.86l.99-1.75h2.86c.5,0,.91-.08,1.25-.25.33-.17.58-.4.75-.69.17-.3.26-.65.26-1.05s-.07-.78-.22-1.08c-.15-.31-.38-.55-.7-.71-.32-.17-.73-.26-1.24-.26h-2.48l.02-1.61h3.23l.5.61c.7.02,1.28.18,1.73.47.46.29.8.66,1.02,1.12.22.46.33.95.33,1.48,0,.81-.18,1.5-.54,2.05-.35.55-.86.97-1.52,1.26-.66.28-1.46.42-2.39.42Z"/>
				<path class="cls-3" d="m303.97,181.83h2.2c-.07.84-.31,1.59-.7,2.24-.4.65-.96,1.16-1.68,1.54s-1.6.56-2.63.56c-.79,0-1.5-.14-2.14-.42-.63-.29-1.17-.69-1.63-1.21-.45-.53-.8-1.16-1.04-1.91-.23-.74-.35-1.58-.35-2.5v-1.06c0-.92.12-1.75.36-2.5.25-.74.6-1.38,1.05-1.91.46-.53,1-.94,1.64-1.22.65-.28,1.37-.42,2.17-.42,1.02,0,1.88.19,2.58.56s1.25.89,1.64,1.56c.39.66.63,1.42.72,2.28h-2.2c-.06-.55-.19-1.02-.39-1.41-.19-.39-.48-.69-.86-.9-.38-.21-.88-.32-1.49-.32-.5,0-.94.09-1.32.28-.38.19-.69.46-.94.83-.25.36-.44.81-.57,1.34-.12.53-.18,1.13-.18,1.81v1.08c0,.65.06,1.23.17,1.76.12.52.29.97.53,1.35.24.38.54.67.91.87.37.21.81.31,1.33.31.63,0,1.13-.1,1.52-.3.39-.2.69-.49.89-.87.21-.39.34-.86.4-1.41Z"/>
				<path class="cls-3" d="m300.13,219h-2.73l.02-1.75h2.72c.79,0,1.45-.17,1.99-.52.54-.35.94-.84,1.21-1.49.27-.64.41-1.41.41-2.3v-.69c0-.69-.08-1.3-.24-1.84-.15-.53-.38-.98-.69-1.34-.3-.36-.67-.64-1.11-.83-.43-.19-.93-.28-1.5-.28h-2.87v-1.76h2.87c.85,0,1.63.14,2.33.43.7.28,1.31.69,1.82,1.22.52.53.91,1.17,1.19,1.92.28.74.41,1.58.41,2.5v.68c0,.92-.14,1.75-.41,2.5-.28.74-.67,1.38-1.19,1.92-.52.53-1.13.93-1.85,1.22-.71.28-1.5.42-2.38.42Zm-1.51-12.8v12.8h-2.21v-12.8h2.21Z"/>
				<path class="cls-3" d="m305.58,249.25v1.75h-6.79v-1.75h6.79Zm-6.17-11.05v12.8h-2.21v-12.8h2.21Zm5.28,5.34v1.72h-5.91v-1.72h5.91Zm.84-5.34v1.76h-6.75v-1.76h6.75Z"/>
				<!-- <path class="cls-3" d="m283.99,53.75l-5.95,17.25h-3.6l7.49-19.91h2.3l-.25,2.65Zm4.98,17.25l-5.96-17.25-.26-2.65h2.31l7.52,19.91h-3.61Zm-.29-7.38v2.72h-10.83v-2.72h10.83Z"/> -->
				<text class="text-Stat v1" x="276" y="72">A</text>
				<!-- <path class="cls-3" d="m481.98,164.74l-5.95,17.25h-3.6l7.49-19.91h2.3l-.25,2.65Zm4.98,17.25l-5.96-17.25-.26-2.65h2.31l7.52,19.91h-3.61Zm-.29-7.38v2.72h-10.83v-2.72h10.83Z"/> -->
				<text class="text-Stat v2" x="472" y="182">A</text>
				<!-- <path class="cls-3" d="m480.15,410h-4.25l.03-2.72h4.23c1.23,0,2.26-.27,3.09-.81.84-.54,1.47-1.31,1.89-2.31.43-1,.64-2.2.64-3.58v-1.08c0-1.07-.12-2.03-.37-2.86-.24-.83-.59-1.53-1.07-2.09-.46-.57-1.04-.99-1.72-1.29-.67-.29-1.45-.44-2.34-.44h-4.46v-2.73h4.46c1.32,0,2.53.22,3.62.67,1.09.44,2.04,1.07,2.83,1.9.8.83,1.42,1.82,1.85,2.98.43,1.16.64,2.45.64,3.88v1.05c0,1.43-.21,2.73-.64,3.88-.43,1.16-1.04,2.15-1.85,2.98-.8.82-1.76,1.45-2.87,1.9-1.1.44-2.34.66-3.7.66Zm-2.35-19.91v19.91h-3.43v-19.91h3.43Z"/> -->
				<text class="text-Stat v3" x="472" y="410">A</text>
				<!-- <path class="cls-3" d="m289.14,515.52h3.42c-.11,1.3-.47,2.46-1.09,3.49-.62,1.01-1.49,1.81-2.61,2.39-1.12.58-2.48.88-4.09.88-1.23,0-2.34-.22-3.32-.66-.98-.45-1.83-1.08-2.53-1.89-.7-.82-1.24-1.81-1.61-2.97-.37-1.16-.55-2.45-.55-3.88v-1.65c0-1.43.19-2.73.56-3.88.38-1.16.93-2.15,1.64-2.97.71-.83,1.56-1.46,2.56-1.9,1-.44,2.13-.66,3.38-.66,1.59,0,2.93.29,4.02.88,1.09.58,1.94,1.39,2.54,2.42.61,1.03.98,2.21,1.12,3.54h-3.42c-.09-.86-.29-1.59-.6-2.2-.3-.61-.75-1.07-1.34-1.39-.59-.33-1.37-.49-2.32-.49-.78,0-1.47.15-2.05.44-.58.29-1.07.72-1.46,1.28-.39.57-.69,1.26-.89,2.09-.19.82-.29,1.76-.29,2.82v1.68c0,1,.09,1.91.26,2.73.18.81.46,1.51.82,2.09.37.58.85,1.04,1.42,1.35.57.32,1.26.48,2.07.48.97,0,1.76-.16,2.36-.47.61-.31,1.07-.76,1.38-1.35.32-.6.53-1.34.63-2.2Z"/> -->
				<text class="text-Stat v4" x="276" y="520">A</text>
				<!-- <path class="cls-3" d="m85.99,392.74l-5.95,17.25h-3.6l7.49-19.91h2.3l-.25,2.65Zm4.98,17.25l-5.96-17.25-.26-2.65h2.31l7.52,19.91h-3.61Zm-.29-7.38v2.72h-10.83v-2.72h10.83Z"/> -->
				<text class="text-Stat v5" x="76" y="410">A</text>
				<!-- <path class="cls-3" d="m85.99,164.74l-5.95,17.25h-3.6l7.49-19.91h2.3l-.25,2.65Zm4.98,17.25l-5.96-17.25-.26-2.65h2.31l7.52,19.91h-3.61Zm-.29-7.38v2.72h-10.83v-2.72h10.83Z"/> -->
				<text class="text-Stat v6" x="76" y="182">A</text>
				<path class="cls-3" d="m260.77,30.3v1.38h5.47v-1.38h-5.47Zm1.63,4.94v1.34h2.18v4.45h-2.18v1.33h3.5v-7.12h-3.5Zm.35-4.26c-.43,2.56-1.17,4.99-2.38,6.56.24.42.56,1.34.62,1.73,1.6-1.95,2.59-4.94,3.2-7.98l-1.44-.3Zm-.99,4.26v8.37h1.31v-8.37h-1.31Zm5.89-3.33v1.34h6.5v-1.34h-6.5Zm6.13,0v.22c-.16.98-.43,2.19-.69,2.94l1.17.29c.32-.83.67-2.14.91-3.28l-.96-.22-.22.05h-.21Zm-3.55-2.42v6.94h1.34v-6.94h-1.34Zm-3.25,2.42v4.21c0,2.24-.13,5.31-1.54,7.47.32.14.9.53,1.14.74,1.5-2.3,1.73-5.79,1.73-8.21v-4.21h-1.33Zm.83,3.82v1.31h5.73v-1.31h-5.73Zm5.54,0v.24c-.8,3.52-3.15,6.11-5.92,7.18.29.29.66.82.82,1.15,3.04-1.36,5.52-4.06,6.48-8.3l-.88-.34-.24.06h-.26Zm-4.11.9l-1.23.34c1.2,3.46,3.34,6.08,6.46,7.36.21-.38.64-.94.94-1.22-2.99-1.06-5.15-3.47-6.18-6.48Zm12.06-5.94v1.22h9.98v-1.22h-9.98Zm4.21-1.22v4.08h1.47v-4.08h-1.47Zm-4.46,8.29v1.26h10.3v-1.26h-10.3Zm4.43-1.06v1.71h1.44v-1.71h-1.44Zm2.58-2.7h1.46v1.71h-1.46v-1.71Zm-2.53,0h1.41v1.71h-1.41v-1.71Zm-2.5,0h1.38v1.71h-1.38v-1.71Zm-1.28-1.09v3.89h9.1v-3.89h-9.1Zm-.19,10.13l.35,1.3c1.54-.32,3.58-.74,5.54-1.15l-.11-1.25c-2.13.43-4.32.85-5.78,1.1Zm5.5-4.61l-1.26.27c.8,2.78,2.32,4.74,4.91,5.63.21-.37.62-.93.93-1.2-2.38-.69-3.89-2.42-4.58-4.7Zm-1.62-.18c-1.04,1.14-3.14,1.98-5.1,2.45.27.29.69.93.85,1.22,2.1-.64,4.35-1.73,5.6-3.22l-1.34-.45Zm4.75,1.07c-.62.54-1.71,1.31-2.48,1.74l.82.75c.8-.38,1.86-.99,2.74-1.6l-1.07-.9Zm-13.41-6.13v1.44h4.42v-1.44h-4.42Zm1.57-3.58v10.56h1.38v-10.56h-1.38Zm-1.9,10.43l.5,1.52c1.31-.59,2.96-1.36,4.5-2.1l-.4-1.38c-1.68.75-3.42,1.5-4.59,1.95Zm6.69.72v2.69h1.23v-3.31l-.45-.16-.78.78Zm10.13-7.86v1.55h12.35v-1.55h-12.35Zm11.74,0v.32c-.3,6.16-.64,8.67-1.23,9.23-.21.21-.4.26-.74.26-.42,0-1.41-.02-2.46-.1.29.43.5,1.1.51,1.55.99.05,2,.08,2.58,0,.66-.06,1.07-.21,1.49-.75.72-.82,1.04-3.22,1.39-9.74.02-.22.03-.77.03-.77h-1.57Zm-6.66-3.39v3.01c0,3.22-.4,7.71-5.57,10.67.37.27.93.85,1.17,1.22,5.52-3.25,6-8.26,6-11.89v-3.01h-1.6Z"/>
				<path class="cls-3" d="m501.01,141.37l.17-1.28c-.23-.2-.54-.61-.83-1.13-.33-.57-2.62-4.53-2.98-5.15-.24-.42-.67-1.26-.78-1.55l-1.57.9c.13.2.64.92.95,1.45.3.53,2.64,4.57,2.94,5.1-1.27.29-3.34.23-4.93-.09-2.32-.49-5.2-1.62-7.33-3.36l-.53,1.8c2.27,1.59,5.11,2.65,7.77,3.18,1.99.4,4.52.35,6.19.12.28-.03.76-.03.94,0Zm-6.12-.46l-1.58-.43c-.47,2.25-1.28,4.82-2.05,6.62l1.78.62c.6-1.58,1.5-4.63,1.86-6.8Zm14.14,13.39c.48-.28,1.1-.12,1.37.36.27.47.12,1.1-.37,1.38-.47.27-1.09.09-1.36-.38-.27-.47-.11-1.08.36-1.36Zm-.42-.74c-.87.5-1.18,1.63-.67,2.51s1.65,1.19,2.52.69c.89-.51,1.19-1.65.68-2.54-.51-.89-1.64-1.18-2.53-.67Zm-2.61-6.27l-.94-1.62c-.33.26-.89.64-1.21.82-.79.46-6.14,3.54-7.59,4.38-1.15.66-1.35,1.63-.91,2.87.24.64.68,1.49,1.17,2.35.87,1.51,2.18,3.55,3.09,4.68l1.59-.92c-.97-.97-2.38-3.06-3.22-4.52-.38-.65-.72-1.32-.9-1.79-.25-.72-.25-1.11.41-1.49,1.02-.59,6.39-3.69,7.18-4.14.39-.22.93-.48,1.32-.63Zm-4.75,1.76l-1.43.84c1.46,1.54,3.86,3.8,5.49,5.09.41.33.97.75,1.43,1.1l1.04-1.4c-.54-.3-1.01-.62-1.45-.95-1.54-1.16-3.7-3.18-5.07-4.68Zm6.89,11.89l-1.72.99c.31.45.81,1.25,1.26,2.03.74,1.29,3.7,6.4,4.35,7.54.34.6.66,1.26.82,1.58l1.72-.99c-.22-.32-.59-.82-.98-1.5-.65-1.12-3.6-6.24-4.34-7.52-.44-.76-.89-1.63-1.11-2.11Zm16.5,19.48l-.95-.71c-.38.87-.85,1.63-1.42,2.46l1,.71c.45-.69,1.03-1.8,1.36-2.47Zm1.72,1.32l-.98-.67c-.36.85-.76,1.62-1.33,2.49l1.02.67c.45-.69,1.01-1.8,1.3-2.49Zm-13.74-1.25c-.53.3-1.3.69-1.82.9l.98,1.71c.47-.34,1.28-.89,1.7-1.13.83-.48,6.14-3.54,8.02-4.63.48-.28,1.13-.58,1.6-.78l-.99-1.72c-.41.35-1.02.76-1.47,1.01-1.16.67-7.12,4.11-8.02,4.63Zm6.63-2.28l-1.57.9c.4,1.78.89,4.81.96,6.87l1.85-.25c-.13-1.89-.7-5.38-1.24-7.52Z"/>
				<path class="cls-3" d="m518.97,390.5l-.96-.55-1.88,3.26.96.55,1.88-3.26Zm-1.95-1.13l-.96-.55-1.88,3.26.96.55,1.88-3.26Zm4.9,4.29c-.48-.42-1.08-1.11-1.49-1.62l-.91,1.1c.31.51.81,1.22,1.34,1.9l1.06-1.38Zm-.52-2.72l-6.55-3.78-.68,1.18,5.53,3.19-1.66,2.87,1.03.59,2.34-4.05Zm-2.09,3.62l-9.88-5.7c-.21-.12-.22-.22-.12-.42.12-.21.47-.85.88-1.49-.4,0-1.05-.13-1.4-.26-.55.96-.91,1.6-.94,2.14-.05.53.24.86.88,1.23l9.89,5.71.7-1.21Zm-3.53-8.38l-1.26-.5c-.6,1.43-1.36,3.32-2.08,5.14l1.09.58c.8-1.92,1.65-3.89,2.25-5.21Zm-.97,6.74c-1.71-2.54-2.43-5.77-2.19-8.84-.37.14-1.13.29-1.47.31-.09,3.2.74,6.63,2.61,9.49l1.05-.96Zm1.72,2.27l-1.22-.7-3.72,6.44,1.22.7,3.72-6.44Zm1.14,5.61l-11.2-6.46c-.25-.14-.26-.28-.13-.54.14-.24.56-1.01,1.08-1.81-.46,0-1.19-.11-1.56-.24-.68,1.14-1.04,1.87-1.09,2.47-.07.59.21.97.95,1.4l11.21,6.47.74-1.29Zm-4.37-6.74c-1.35,0-2.99-.23-3.93-.55l-.2,1.47c.96.32,2.59.48,3.93.42l.2-1.34Zm-9.09,15.02l-5.57-3.22-.75,1.3,5.57,3.22.75-1.3Zm2.16-2.65l-1.14-.66-4.14,7.18,1.14.66,4.14-7.18Zm-4.92-3.6l-1.15-.66-4.65,8.05,1.15.66,4.65-8.05Zm2.15,2.44l-1.11-.64-3.77,6.53,1.11.64,3.77-6.53Zm6.23,5.43l-2.18,3.77-2.27-1.31,2.18-3.77,2.27,1.31Zm1.83-.57l-4.52-2.61-3.62,6.26,4.52,2.61,3.62-6.26Zm1.42-3.99l-11.63-6.71-.74,1.27,11.63,6.71.74-1.27Zm-1.45-3.7l-1.22-.7-2.91,5.04,1.22.7,2.91-5.04Zm-1.76,1.94c-1.36-1.42-2.85-3.68-3.39-5.3-.45.04-1.16.02-1.6-.07.7,1.83,2.55,4.3,4.2,5.97l.79-.6Zm3.04,4.45c.13-1.31.75-3.32,1.38-5.02-.37,0-.89-.09-1.22-.19-.71,1.73-1.45,3.89-1.69,5.52l1.53-.32Zm-5.07-4.07l-.18-.9c-.76.13-2.62.34-3.42.32l.6,1.36c.48-.09,2.51-.6,3-.78Zm-15.14,14.17l-1.23-.71-3.5,6.05,1.23.71,3.5-6.06Zm10.76,5.46l-12.32-7.11-.74,1.29,11.1,6.41-2.96,5.13,1.22.7,3.7-6.42Zm-2.34-8.87l-5.03-2.9-.62,1.08,5.03,2.9.62-1.08Zm3.76,3.76l-1.35,2.34-2.15-1.24,1.35-2.34,2.15,1.24Zm1.8-.49l-4.42-2.55-2.71,4.7,4.42,2.55,2.71-4.7Zm-5-.37l-6.28-3.62-.68,1.18,6.28,3.62.68-1.18Zm-4.98-6.44l-1.4-.49c-.54,1.8-1.27,4.22-1.93,6.52l1.24.55c.74-2.4,1.53-4.96,2.09-6.57Zm2.32,5.64l-1.16-.67-1.45,2.51,1.16.67,1.45-2.51Zm.81,5.48l-1.22-.7-2.3,3.99-2.62-1.51,2.3-3.99-1.22-.7-3.05,5.28,5.06,2.92,3.05-5.28Zm-1.39,8.55l-1.05-.61-3.94,6.82,1.05.61,3.94-6.82Zm-.43,3.43l-1.66-.96-.74,1.27,1.66.96.74-1.27Zm-9.38-6.93l-.96-.42c-.45.94-.98,2.04-1.52,3.21l.84.47c.61-1.25,1.18-2.39,1.64-3.25Zm.43,5.31l-4.27-2.46c-.14-.08-.15-.16-.07-.32.1-.17.39-.71.74-1.25-.36-.02-.88-.12-1.2-.23-.48.83-.79,1.37-.84,1.84-.04.49.19.76.72,1.06l4.28,2.47.64-1.11Zm-.71-2.55c-.92-.07-2.03-.32-2.68-.57l-.2.92c.62.23,1.74.43,2.66.48l.22-.83Zm6.68,1.25c-1.05.63-2.49,1.3-3.36,1.53l.35.92c.86-.24,2.28-.94,3.29-1.59l-.28-.86Zm-3.31-.58c-1.2-.86-2.88-2.24-3.8-3.14l-.67.78c.86.9,2.44,2.27,3.68,3.36l.8-1Zm.29-3.25l-5.47-3.16-.62,1.08,4.5,2.6-2.59,4.49.97.56,3.22-5.57Zm4.5,3.08l-3.88-2.24-3.19,5.53,3.88,2.24.57-.98-2.96-1.71,2.09-3.62,2.96,1.71.54-.93Zm-1.66,3.36c-.78-1.04-1.24-2.4-1.36-3.67-.25.14-.73.34-.98.38.18,1.32.75,2.83,1.61,4.03l.73-.74Zm-5.23,2.3l-1.11-.64-2.71,4.7,1.11.64,2.71-4.7Zm-2.76-1.59l-1.12-.65-2.71,4.7,1.12.65,2.71-4.7Zm-2.83-1.6l-1.19-.69-2.86,4.95,1.19.69,2.86-4.95Zm10.78,6.7c-1.68-1.64-3.2-3.62-3.89-5.35-.35.16-1.04.42-1.36.51.83,1.83,2.48,4.02,4.3,5.86l.96-1.02Zm-1.55,2.34c-.77-.68-1.77-1.8-2.36-2.58l-.87.86c.53.79,1.42,1.86,2.23,2.8l1-1.09Zm-1.24-3.56l.12-.21-.48-1.59-9.21-5.32-.69,1.19,9.09,5.25-2.4,4.16,1.18.68,2.4-4.16Zm-1.35,1.09l-8.44-4.87-.65,1.12,8.44,4.87.65-1.12Z"/>
				<path class="cls-3" d="m301.46,542.54v-1.38h-8.14v1.38h8.14Zm.61-6.08v-1.38h-9.38v1.38h9.38Zm.16,2.94v-1.38h-9.65v1.38h9.65Zm-4.11,5.02v-5.74h-1.44v5.74h1.44Zm-2.1-6.14v-6.91c0-.22.06-.29.32-.29.22-.02,1.07-.02,1.89.02-.18-.42-.38-1.02-.43-1.44-1.18,0-2,.02-2.51.24-.54.22-.7.62-.7,1.44v6.94h1.44Zm4.99-4.16c-.69-.86-1.44-2.06-1.73-2.83l-1.28.77c.34.77,1.14,1.9,1.82,2.74l1.18-.67Zm6.61,2.05l-.37-1.47c-1.39.43-3.18.98-4.86,1.52l.19,1.38c1.84-.56,3.76-1.1,5.04-1.42Zm-.24,5.18v-1.39h-4.91v1.39h4.91Zm-1.95,3.14v-13.09c0-.22.08-.29.27-.29.19-.02.78-.02,1.42.02-.19-.42-.37-1.04-.42-1.41-1.01-.02-1.66.05-2.1.27-.43.24-.59.64-.59,1.39v13.1h1.41Zm-23.55.03v-4.51h-1.49v4.51h1.49Zm3.52-1.41v-1.25h-8.61v1.25h8.61Zm-.56-2.48v-1.26h-7.54v1.26h7.54Zm.54-2.19v-3.01h-1.28v1.81h-6.06v-1.81h-1.33v3.01h8.67Zm-4.91-2.21v-4.69c0-1.36-.27-1.78-1.47-1.78h-1.17c-.99,0-1.34.56-1.47,2.7.38.11.96.32,1.23.56.03-1.71.11-1.97.38-1.97h.8c.29,0,.34.06.34.48v4.69h1.36Zm2.93-.02v-1.09c0-1.23.32-3.15,3.09-4.48-.34-.27-.82-.72-1.04-1.02-3.04,1.52-3.42,3.84-3.42,5.46v1.14h1.38Zm5.6,8.27c.38-1.09,1.1-2.64,1.68-3.58l-1.02-.43c-.61.9-1.36,2.34-1.98,3.54l1.33.48Zm-1.81-1.86c.86-1.7,2.35-4.06,3.55-5.49l-.9-.5c-1.22,1.38-2.77,3.63-3.9,5.41l1.25.58Zm4.32-1.65c-.83-.82-1.78-1.95-2.16-2.72l-.83,1.14c.4.75,1.38,1.81,2.22,2.58l.77-.99Zm-3.73-2.08c-.62-1.09-1.22-2.53-1.41-3.44l-1.17.53c.21.9.85,2.29,1.5,3.34l1.07-.43Zm3.82-1.46l-.16-1.33c-1.47.1-3.41.22-5.3.37l.02,1.25c2-.11,4.03-.22,5.44-.29Zm-4.26-2.48c-.37-.93-.69-2.13-.77-2.91l-1.15.37c.11.77.43,1.95.85,2.86l1.07-.32Zm3.41.27c.16-1.38.43-2.82.93-3.78-.3-.13-.88-.38-1.14-.54-.48,1.02-.83,2.58-1.02,4.11l1.23.21Zm-1.71,1.57v-7.15h-1.33v7.15h1.33Zm-14.3,4.27v-1.55h-12.35v1.55h12.35Zm-11.74,0v-.32c.3-6.16.64-8.67,1.23-9.23.21-.21.4-.26.74-.26.42,0,1.41.02,2.46.1-.29-.43-.5-1.1-.51-1.55-.99-.05-2-.08-2.58,0-.66.06-1.07.21-1.49.75-.72.82-1.04,3.22-1.39,9.74-.02.22-.03.77-.03.77h1.57Zm6.66,3.39v-3.01c0-3.22.4-7.71,5.57-10.67-.37-.27-.93-.85-1.17-1.22-5.52,3.25-6,8.26-6,11.89v3.01h1.6Z"/>
				<path class="cls-3" d="m77.56,445.1l12.78-7.38-.68-1.18-12.78,7.38.68,1.18Zm5.67-.78l1.22-.7-2.6-4.5-1.22.7,2.6,4.5Zm-.4-2.2c1.7-.5,4.23-.83,5.75-.62.24-.42.65-1.08.98-1.44-1.81-.12-4.72.43-6.82,1.08l.09.98Zm.07-1.67l.86.34c.42-.78,1.55-2.63,2.13-3.35l-1.49-.28c-.28.53-1.31,2.73-1.49,3.3Zm-3.24,5.84c.77-.91,1.88-1.95,2.68-2.49l-.77-.79c-.78.56-1.89,1.59-2.64,2.54l.73.74Zm-2.51-3.67c1.05-.39,2.61-.82,3.61-1.01l-.21-.93c-.99.11-2.52.46-3.77.74l.37,1.21Zm-.55-1.57l.97-.56-4.11-7.12-.97.56,4.11,7.12Zm1.49-1.32l.91-.53-3.74-6.47-.91.53,3.74,6.47Zm2.13-.25l.98-.57-4.54-7.87-.98.57,4.54,7.87Zm-6.31-.62l5-2.89-.72-1.25-5,2.89.72,1.25Zm7.55-1.16l6.68-3.86-.71-1.23-5.72,3.3-2.35-4.07-.96.55,3.06,5.31Zm-2.86-4.96l5.42-3.13c.15-.09.23-.08.34.1.12.17.45.74.75,1.34.22-.33.57-.74.86-.98-.5-.87-.87-1.47-1.28-1.79-.42-.31-.79-.25-1.37.09l-5.43,3.14.71,1.23Zm4.3,3.23l.9-.52-2.74-4.74-.9.52,2.74,4.74Zm1.77-1.02l.89-.51-2.74-4.74-.89.51,2.74,4.74Zm-11.18-5.99c1.11-.22,2.41-.15,3.47.44l.11-1.41c-1.19-.62-2.56-.57-3.8-.34l.22,1.31Zm-1.16-1.62l2.56-1.48c1.16-.67,1.25-1.26.35-2.82-.19-.33-1.34-2.31-1.54-2.66-.7-1.21-1.27-1.34-2.83-.64.12.37.21.95.2,1.31,1.09-.55,1.32-.54,1.65.04.26.46,1.22,2.11,1.42,2.45.43.75.44.93.05,1.15l-2.55,1.47.68,1.18Zm-1.08-.21c-.13-1.05-.12-2.44.07-3.21l-1.24-.19c-.14.78-.11,2.18.04,3.21l1.13.2Zm-1.43-6.19c.26-1.34.8-2.99,1.3-3.86l-1.29-.6c-.49.91-.97,2.58-1.19,3.9l1.17.56Zm-1.3,1.82c3.45.37,6.97,2.83,9.9,5.98.13-.39.46-1.06.65-1.37-3.09-3.04-6.83-5.55-10.7-6.02l.15,1.41Zm6.85.05l3.69-2.13-.78-1.34-3.69,2.13.78,1.34Zm3.08,3.64l4.07-2.35-.74-1.29-4.07,2.35.74,1.29Zm-4.82-8.34l4.05-2.34-.76-1.32-4.05,2.34.76,1.32Zm6.73,6.37l1.22-.7-4.84-8.38-1.22.7,4.84,8.38Zm-13.03,3l1.87-1.08-.78-1.36-1.87,1.08.78,1.36Zm4.11,4.56l2.81-1.62-.74-1.29-1.64.94-5.32-9.21,1.64-.94-.78-1.34-2.81,1.62,6.84,11.85Zm-.03-18.29l.96-.55-3.69-6.39-.96.55,3.69,6.39Zm-6.45,4.19l.98-.57-4-6.93-.98.57,4,6.93Zm-2.81-2.24l10.09-5.82-.69-1.19-10.09,5.82.69,1.19Zm11.73-2.85l1.03-.81c-1.21-1.68-2.92-4.04-4.56-6.24l-1,.6c1.68,2.34,3.42,4.83,4.54,6.45Zm-5.53,1.2l-2.38-4.13.85-.49,2.38,4.13-.85.49Zm-1.65.95l-2.38-4.13.83-.48,2.38,4.13-.83.48Zm-.24,1.56l4.21-2.43-3.63-6.29-4.21,2.43,3.63,6.29Zm-7.28-3.43c1.19,1.29,2.86,3.61,4.15,5.62.19-.28.53-.64.78-.86-1.26-2.05-2.95-4.47-4.29-5.95l-.65,1.18Zm2.66-2.53l1.21-.7-2.84-4.92-1.21.7,2.84,4.92Zm-2.54-4.39l.29-.17c5.57-3.05,7.63-4.06,8.26-3.97.25.02.37.14.5.36.15.26.47.85.79,1.52.24-.42.7-.87,1.04-1.1-.35-.67-.72-1.32-1.02-1.7-.32-.39-.62-.62-1.19-.65-.86-.11-2.91.91-8.79,4.1-.15.09-.61.35-.61.35l.73,1.26Zm-1.34,4.6c5.37-3.08,9.48-5.6,13.49-3.83.05-.43.23-1.13.43-1.5-4.37-1.82-8.95.81-14.64,4.08l.73,1.26Zm-4.67-12.92l1.6-.11-4.17-7.22-1.25.72,3.82,6.61Zm2-3.52l1.19-.69-2.6-4.5-1.19.69,2.6,4.5Zm3.07-1.75l1.23-.71-2.71-4.7-1.23.71,2.71,4.7Zm-5.29,3.92l10.14-5.86-.78-1.34-10.14,5.86.78,1.34Zm-2.18,2.15c2.41-.5,5.06-.55,7.05-.04.04-.41.22-1.2.33-1.54-2.18-.44-5.11-.37-7.78.13l.4,1.45Zm1.91,3.53c2.48-.44,5.25-.35,7.32.23.18-.42.69-1.23.93-1.53-2.42-.61-5.69-.65-8.57-.19l.33,1.49Zm4.52-.69l9.1-5.26-.76-1.32-10.41,6.01v.02s2.06.54,2.06.54Zm-11.7-11.63l12.86-7.42-.76-1.32-12.86,7.42.76,1.32Zm3.35-.31c1.19-.56,2.87-1.2,4.01-1.37l-.23-1.2c-1.23.25-2.99.93-4.19,1.54l.41,1.04Zm-1.42-2.45c.55-.82,1.31-1.79,1.84-2.28l-1.02-.68c-.49.49-1.22,1.46-1.73,2.29l.91.68Zm-3.59-1.58c2.03-.8,4.2-1.39,5.85-1.29-.05-.4-.1-1.16-.07-1.53-1.73,0-4.08.58-6.31,1.42l.53,1.4Zm2.12-1.52l1.47-.33-3.94-6.82-1.25.72,3.71,6.43Zm-4.02-.47l11.79-6.81-.76-1.32-11.79,6.81.76,1.32Zm8.32-1.02l1.23-.71-3.97-6.87-1.23.71,3.97,6.87Zm4.99-1.5l1.26-.73-4.96-8.59-1.26.73,4.96,8.59Z"/>
				<path class="cls-3" d="m53.73,178l1.21.7,1.93-3.34-1.21-.7-1.93,3.34Zm1.63-2.83l.21.12c2.83,1.69,3.81,2.33,3.93,2.66.07.17.02.32-.1.52-.14.24-.45.78-.83,1.31.44,0,1.04.15,1.43.34.41-.65.77-1.27.94-1.66.17-.42.2-.73.05-1.15-.23-.54-1.39-1.3-4.39-3.12-.17-.1-.51-.3-.51-.3l-.74,1.27Zm-2.11-6.58c.94-.57,2.23-1.21,3-1.43l-.41-1.34c-.78.25-2.04.95-2.94,1.51l.35,1.25Zm4.74.28c2.7,2.91,4.13,6.28,4,9.87.42-.12,1.24-.3,1.63-.33-.07-3.78-1.62-7.4-4.56-10.67l-1.08,1.13Zm-7.18,7.32l1.29.74,6.18-10.71-1.29-.74-6.18,10.71Zm-.5.86l3.98,2.3c1.8,1.04,4.15,2.54,5.2,4.63.33-.22,1.14-.53,1.53-.6-1.11-2.32-3.91-4.23-5.92-5.39l-3.99-2.3-.79,1.37Zm1.08-6.99c6.52,3.71,13.47,6.11,15.14,3.22.67-1.16.28-2-2.05-3.64-.32.27-.91.58-1.37.71,1.75,1.12,2.36,1.7,2.16,2.06-.94,1.62-7.05-.14-13.09-3.7l-.78,1.36Zm10.75-3.38l1.16.67,7.2-12.47-1.16-.67-7.2,12.47Zm-2.23-5.42l1.03.59,4.36-7.55-1.03-.59-4.36,7.55Zm2,1.15l1.04.6,4.36-7.55-1.04-.6-4.36,7.55Zm5.56,6.5l1.4.4c.69-1.84,1.68-4.41,2.54-6.81l-1.18-.61c-.99,2.55-2.04,5.29-2.76,7.02Zm-1.25-8.55l-.38,1.37c3.64.61,6.72-.37,9.46-3.29-.26-.38-.59-1.06-.71-1.5-2.43,2.83-5.3,3.94-8.37,3.43Zm3.35-3.89c.21,1.21.27,3.11.2,4.42l1.19-.49c.11-1.31.11-3.1-.05-4.56l-1.34.63Zm-12.14,4.32l6.57,3.79.78-1.34-5.49-3.17,4.24-7.34-1.08-.62-5.02,8.69Zm6.44,3.72l4.84,2.79.62-1.43-4.68-2.7-.78,1.34Zm.54-17.04l12.86,7.42.76-1.32-12.86-7.42-.76,1.32Zm1.94,2.75c1.08.75,2.47,1.89,3.19,2.79l.92-.8c-.83-.94-2.3-2.12-3.43-2.86l-.69.88Zm1.42-2.45c.98.07,2.21.24,2.9.45l.08-1.23c-.67-.18-1.88-.33-2.85-.35l-.13,1.12Zm-.43-3.9c1.71,1.36,3.31,2.94,4.04,4.42.32-.24.96-.67,1.29-.83-.87-1.5-2.54-3.24-4.39-4.75l-.94,1.15Zm2.37,1.07l1.02,1.11,3.94-6.82-1.25-.72-3.71,6.43Zm-1.6-3.72l11.79,6.81.76-1.32-11.79-6.81-.76,1.32Zm5.04,6.7l1.23.71,3.97-6.87-1.23-.71-3.97,6.87Zm3.79,3.57l1.26.73,4.96-8.59-1.26-.73-4.96,8.59Z"/>
				</svg>